<mxfile host="65bd71144e">
    <diagram id="7oNqLGNNsP6F4T7zOrMc" name="Page-1">
        <mxGraphModel dx="4970" dy="2673" grid="1" gridSize="10" guides="1" tooltips="1" connect="1" arrows="1" fold="1" page="1" pageScale="1" pageWidth="850" pageHeight="1100" math="0" shadow="0">
            <root>
                <mxCell id="0"/>
                <mxCell id="1" parent="0"/>
                <mxCell id="4" style="edgeStyle=none;html=1;entryX=0.5;entryY=0;entryDx=0;entryDy=0;fontSize=28;fontStyle=1" parent="1" source="3" target="5" edge="1">
                    <mxGeometry relative="1" as="geometry">
                        <mxPoint x="-440" y="160" as="targetPoint"/>
                    </mxGeometry>
                </mxCell>
                <mxCell id="3" value="&lt;font style=&quot;font-size: 21px;&quot;&gt;Website Trường Đại học&lt;/font&gt;" style="rounded=0;whiteSpace=wrap;html=1;fontSize=28;fontStyle=1" parent="1" vertex="1">
                    <mxGeometry x="345" y="10" width="160" height="80" as="geometry"/>
                </mxCell>
                <mxCell id="6" style="edgeStyle=none;html=1;fontSize=28;fontStyle=1" parent="1" source="5" edge="1">
                    <mxGeometry relative="1" as="geometry">
                        <mxPoint x="-1080" y="320" as="targetPoint"/>
                    </mxGeometry>
                </mxCell>
                <mxCell id="42" style="edgeStyle=none;html=1;entryX=0.5;entryY=0;entryDx=0;entryDy=0;fontSize=28;fontStyle=1" parent="1" source="5" target="17" edge="1">
                    <mxGeometry relative="1" as="geometry"/>
                </mxCell>
                <mxCell id="43" style="edgeStyle=none;html=1;entryX=0.573;entryY=0.017;entryDx=0;entryDy=0;entryPerimeter=0;fontSize=28;fontStyle=1" parent="1" source="5" target="28" edge="1">
                    <mxGeometry relative="1" as="geometry"/>
                </mxCell>
                <mxCell id="44" style="edgeStyle=none;html=1;entryX=0.5;entryY=0;entryDx=0;entryDy=0;fontSize=28;fontStyle=1" parent="1" source="5" target="35" edge="1">
                    <mxGeometry relative="1" as="geometry"/>
                </mxCell>
                <mxCell id="52" style="edgeStyle=none;html=1;entryX=0.5;entryY=0;entryDx=0;entryDy=0;fontSize=28;fontStyle=1" edge="1" parent="1" source="5" target="50">
                    <mxGeometry relative="1" as="geometry"/>
                </mxCell>
                <mxCell id="53" style="edgeStyle=none;html=1;entryX=0.5;entryY=0;entryDx=0;entryDy=0;fontSize=28;fontStyle=1" edge="1" parent="1" source="5" target="48">
                    <mxGeometry relative="1" as="geometry"/>
                </mxCell>
                <mxCell id="5" value="FrontEnd" style="rounded=0;whiteSpace=wrap;html=1;fontSize=28;fontStyle=1" parent="1" vertex="1">
                    <mxGeometry x="345" y="160" width="160" height="80" as="geometry"/>
                </mxCell>
                <mxCell id="7" value="Trang chủ" style="rounded=0;whiteSpace=wrap;html=1;fontSize=28;fontStyle=1" parent="1" vertex="1">
                    <mxGeometry x="-1160" y="320" width="160" height="80" as="geometry"/>
                </mxCell>
                <mxCell id="14" style="edgeStyle=none;html=1;entryX=0.5;entryY=0;entryDx=0;entryDy=0;fontSize=28;fontStyle=1" parent="1" source="17" target="18" edge="1">
                    <mxGeometry relative="1" as="geometry">
                        <mxPoint x="-660" y="470" as="targetPoint"/>
                    </mxGeometry>
                </mxCell>
                <mxCell id="15" style="edgeStyle=none;html=1;entryX=0.5;entryY=0;entryDx=0;entryDy=0;fontSize=28;fontStyle=1" parent="1" source="17" target="19" edge="1">
                    <mxGeometry relative="1" as="geometry">
                        <mxPoint x="-510" y="480" as="targetPoint"/>
                    </mxGeometry>
                </mxCell>
                <mxCell id="16" style="edgeStyle=none;html=1;entryX=0.5;entryY=0;entryDx=0;entryDy=0;fontSize=28;fontStyle=1" parent="1" source="17" target="20" edge="1">
                    <mxGeometry relative="1" as="geometry">
                        <mxPoint x="-260" y="480" as="targetPoint"/>
                    </mxGeometry>
                </mxCell>
                <mxCell id="39" style="edgeStyle=none;html=1;entryX=0.5;entryY=0;entryDx=0;entryDy=0;fontSize=28;fontStyle=1" parent="1" source="17" target="21" edge="1">
                    <mxGeometry relative="1" as="geometry"/>
                </mxCell>
                <mxCell id="17" value="Giới thiệu" style="rounded=0;whiteSpace=wrap;html=1;fontSize=28;fontStyle=1" parent="1" vertex="1">
                    <mxGeometry x="-640" y="320" width="160" height="80" as="geometry"/>
                </mxCell>
                <mxCell id="18" value="Chương trình đào tạo" style="rounded=0;whiteSpace=wrap;html=1;fontSize=28;fontStyle=1" parent="1" vertex="1">
                    <mxGeometry x="-940" y="480" width="160" height="80" as="geometry"/>
                </mxCell>
                <mxCell id="19" value="Thời khóa biểu" style="rounded=0;whiteSpace=wrap;html=1;fontSize=28;fontStyle=1" parent="1" vertex="1">
                    <mxGeometry x="-740" y="480" width="160" height="80" as="geometry"/>
                </mxCell>
                <mxCell id="20" value="Lịch thi" style="rounded=0;whiteSpace=wrap;html=1;fontSize=28;fontStyle=1" parent="1" vertex="1">
                    <mxGeometry x="-540" y="480" width="160" height="80" as="geometry"/>
                </mxCell>
                <mxCell id="21" value="Đề cương &lt;br style=&quot;font-size: 28px;&quot;&gt;môn học" style="rounded=0;whiteSpace=wrap;html=1;fontSize=28;fontStyle=1" parent="1" vertex="1">
                    <mxGeometry x="-340" y="480" width="160" height="80" as="geometry"/>
                </mxCell>
                <mxCell id="25" style="edgeStyle=none;html=1;entryX=0.5;entryY=0;entryDx=0;entryDy=0;fontSize=28;fontStyle=1" parent="1" source="28" target="29" edge="1">
                    <mxGeometry relative="1" as="geometry">
                        <mxPoint x="20" y="470" as="targetPoint"/>
                    </mxGeometry>
                </mxCell>
                <mxCell id="26" style="edgeStyle=none;html=1;entryX=0.5;entryY=0;entryDx=0;entryDy=0;fontSize=28;fontStyle=1" parent="1" source="28" target="30" edge="1">
                    <mxGeometry relative="1" as="geometry">
                        <mxPoint x="170" y="480" as="targetPoint"/>
                    </mxGeometry>
                </mxCell>
                <mxCell id="27" style="edgeStyle=none;html=1;entryX=0.5;entryY=0;entryDx=0;entryDy=0;fontSize=28;fontStyle=1" parent="1" source="28" target="46" edge="1">
                    <mxGeometry relative="1" as="geometry">
                        <mxPoint x="440" y="479.9999999999998" as="targetPoint"/>
                    </mxGeometry>
                </mxCell>
                <mxCell id="47" style="edgeStyle=none;html=1;entryX=0.5;entryY=0;entryDx=0;entryDy=0;fontSize=28;fontStyle=1" edge="1" parent="1" source="28" target="31">
                    <mxGeometry relative="1" as="geometry"/>
                </mxCell>
                <mxCell id="28" value="Nghiên cứu" style="rounded=0;whiteSpace=wrap;html=1;fontSize=28;fontStyle=1" parent="1" vertex="1">
                    <mxGeometry x="200" y="320" width="160" height="80" as="geometry"/>
                </mxCell>
                <mxCell id="29" value="Đề tài &lt;br style=&quot;font-size: 28px;&quot;&gt;nghiên cứu" style="rounded=0;whiteSpace=wrap;html=1;fontSize=28;fontStyle=1" parent="1" vertex="1">
                    <mxGeometry x="-100" y="480" width="160" height="80" as="geometry"/>
                </mxCell>
                <mxCell id="30" value="Công bố &lt;br style=&quot;font-size: 28px;&quot;&gt;khoa học" style="rounded=0;whiteSpace=wrap;html=1;fontSize=28;fontStyle=1" parent="1" vertex="1">
                    <mxGeometry x="100" y="480" width="160" height="80" as="geometry"/>
                </mxCell>
                <mxCell id="31" value="Hợp tác &lt;br style=&quot;font-size: 28px;&quot;&gt;quốc tế" style="rounded=0;whiteSpace=wrap;html=1;fontSize=28;fontStyle=1" parent="1" vertex="1">
                    <mxGeometry x="500" y="480" width="160" height="80" as="geometry"/>
                </mxCell>
                <mxCell id="32" style="edgeStyle=none;html=1;entryX=0.5;entryY=0;entryDx=0;entryDy=0;fontSize=28;fontStyle=1" parent="1" source="35" target="36" edge="1">
                    <mxGeometry relative="1" as="geometry">
                        <mxPoint x="910" y="470" as="targetPoint"/>
                    </mxGeometry>
                </mxCell>
                <mxCell id="33" style="edgeStyle=none;html=1;entryX=0.5;entryY=0;entryDx=0;entryDy=0;fontSize=28;fontStyle=1" parent="1" source="35" target="37" edge="1">
                    <mxGeometry relative="1" as="geometry">
                        <mxPoint x="1060" y="480" as="targetPoint"/>
                    </mxGeometry>
                </mxCell>
                <mxCell id="34" style="edgeStyle=none;html=1;fontSize=28;entryX=0.5;entryY=0;entryDx=0;entryDy=0;fontStyle=1" parent="1" source="35" edge="1" target="38">
                    <mxGeometry relative="1" as="geometry">
                        <mxPoint x="1310" y="480" as="targetPoint"/>
                    </mxGeometry>
                </mxCell>
                <mxCell id="51" style="edgeStyle=none;html=1;entryX=0.628;entryY=-0.008;entryDx=0;entryDy=0;entryPerimeter=0;fontSize=28;fontStyle=1" edge="1" parent="1" source="35" target="49">
                    <mxGeometry relative="1" as="geometry"/>
                </mxCell>
                <mxCell id="35" value="Sinh viên" style="rounded=0;whiteSpace=wrap;html=1;fontSize=28;fontStyle=1" parent="1" vertex="1">
                    <mxGeometry x="1050" y="320" width="160" height="80" as="geometry"/>
                </mxCell>
                <mxCell id="36" value="Portal &lt;br style=&quot;font-size: 28px;&quot;&gt;sinh viên" style="rounded=0;whiteSpace=wrap;html=1;fontSize=28;fontStyle=1" parent="1" vertex="1">
                    <mxGeometry x="740" y="480" width="160" height="80" as="geometry"/>
                </mxCell>
                <mxCell id="37" value="Hoạt động &lt;br style=&quot;font-size: 28px;&quot;&gt;sinh viên" style="rounded=0;whiteSpace=wrap;html=1;fontSize=28;fontStyle=1" parent="1" vertex="1">
                    <mxGeometry x="940" y="480" width="160" height="80" as="geometry"/>
                </mxCell>
                <mxCell id="38" value="Câu lạc bộ" style="rounded=0;whiteSpace=wrap;html=1;fontSize=28;fontStyle=1" parent="1" vertex="1">
                    <mxGeometry x="1140" y="480" width="160" height="80" as="geometry"/>
                </mxCell>
                <mxCell id="45" value="Đào tạo" style="rounded=0;whiteSpace=wrap;html=1;fontSize=28;fontStyle=1" vertex="1" parent="1">
                    <mxGeometry x="-920" y="320" width="160" height="80" as="geometry"/>
                </mxCell>
                <mxCell id="46" value="Dự án" style="rounded=0;whiteSpace=wrap;html=1;fontSize=28;fontStyle=1" vertex="1" parent="1">
                    <mxGeometry x="300" y="480" width="160" height="80" as="geometry"/>
                </mxCell>
                <mxCell id="48" value="Tin tức &amp;amp; &lt;br style=&quot;font-size: 28px;&quot;&gt;Sự kiện" style="rounded=0;whiteSpace=wrap;html=1;fontSize=28;fontStyle=1" vertex="1" parent="1">
                    <mxGeometry x="630" y="320" width="160" height="80" as="geometry"/>
                </mxCell>
                <mxCell id="49" value="Cựu &lt;br style=&quot;font-size: 28px;&quot;&gt;sinh viên" style="rounded=0;whiteSpace=wrap;html=1;fontSize=28;fontStyle=1" vertex="1" parent="1">
                    <mxGeometry x="1340" y="480" width="160" height="80" as="geometry"/>
                </mxCell>
                <mxCell id="50" value="Liên hệ" style="rounded=0;whiteSpace=wrap;html=1;fontSize=28;fontStyle=1" vertex="1" parent="1">
                    <mxGeometry x="1440" y="320" width="160" height="80" as="geometry"/>
                </mxCell>
            </root>
        </mxGraphModel>
    </diagram>
</mxfile>